<?xml version="1.0" standalone="no"?>
<!DOCTYPE svg PUBLIC "-//W3C//DTD SVG 20010904//EN"
 "http://www.w3.org/TR/2001/REC-SVG-20010904/DTD/svg10.dtd">
<svg version="1.0" xmlns="http://www.w3.org/2000/svg"
 width="50px" height="50px" viewBox="0 0 512.000000 512.000000"
 preserveAspectRatio="xMidYMid meet">

<g transform="translate(0.000000,512.000000) scale(0.100000,-0.100000)"
fill="#000000" stroke="none">
<path d="M450 4987 c-17 -9 -26 -22 -28 -44 -5 -50 24 -63 138 -63 106 0 152
-10 200 -43 65 -44 74 -67 81 -195 6 -138 23 -180 99 -253 65 -62 149 -100
310 -144 74 -20 159 -47 188 -60 82 -38 163 -126 216 -238 52 -109 66 -163 66
-251 0 -59 -3 -68 -27 -89 -14 -12 -41 -35 -59 -50 -80 -68 -165 -237 -166
-329 l0 -49 -111 -56 c-243 -121 -526 -290 -677 -404 -42 -32 -126 -112 -188
-179 -91 -99 -120 -138 -157 -213 -113 -229 -132 -513 -55 -813 66 -256 238
-601 441 -886 267 -375 602 -553 929 -494 197 35 324 136 436 346 109 202 135
309 174 690 30 306 55 401 135 508 35 48 59 68 132 109 122 67 158 81 262 94
151 21 330 -16 458 -93 88 -53 181 -152 323 -344 167 -225 250 -308 367 -366
81 -40 91 -43 189 -46 83 -4 116 0 171 16 179 55 336 208 421 414 33 80 112
382 136 520 79 454 8 976 -184 1358 -150 299 -362 484 -639 558 -85 22 -115
25 -271 25 -152 0 -192 -3 -300 -26 -147 -31 -485 -132 -838 -250 -147 -50
-255 -81 -258 -75 -14 23 -118 80 -190 104 -71 23 -90 26 -189 22 -60 -3 -117
-8 -126 -12 -14 -6 -18 2 -23 51 -17 137 -58 244 -138 361 -98 141 -176 190
-405 253 -206 57 -282 100 -322 182 -17 35 -21 60 -19 137 1 111 -11 148 -71
213 -49 53 -130 92 -221 106 -87 14 -179 13 -210 -2z m3556 -1202 c386 -97
640 -468 741 -1080 27 -166 25 -566 -5 -725 -55 -300 -140 -490 -276 -618
-147 -139 -334 -143 -489 -11 -25 22 -99 106 -165 187 -184 227 -345 368 -527
462 -224 114 -387 111 -652 -15 -337 -159 -437 -313 -478 -734 -38 -389 -60
-502 -119 -626 -70 -146 -157 -218 -323 -263 -164 -46 -275 -33 -433 48 -354
185 -758 791 -856 1286 -26 130 -24 352 5 459 52 196 161 356 324 478 241 180
738 448 1157 625 463 195 1244 459 1550 523 203 43 384 45 546 4z m-1821 -233
l70 -33 -195 -78 c-107 -43 -257 -106 -334 -140 -76 -34 -140 -60 -143 -58 -7
8 40 122 68 163 85 125 209 186 369 181 83 -2 104 -7 165 -35z"/>
<path d="M2576 3312 c-152 -63 -172 -81 -141 -128 23 -35 55 -31 195 27 156
63 186 93 140 139 -11 11 -28 20 -37 20 -10 -1 -81 -27 -157 -58z"/>
<path d="M3615 3069 c-93 -44 -177 -87 -187 -96 -30 -27 -21 -57 52 -164 l70
-103 -43 -28 c-23 -16 -64 -41 -92 -55 -100 -51 -108 -78 -44 -144 23 -23 68
-82 100 -131 46 -69 65 -88 83 -88 13 0 65 20 117 44 l94 44 59 -114 c34 -68
69 -122 83 -131 24 -16 28 -16 77 10 28 15 112 65 186 110 168 102 166 98 79
233 -58 89 -62 98 -45 108 61 37 164 107 184 126 12 11 22 31 22 44 0 13 -42
83 -96 159 -82 119 -99 137 -122 137 -24 0 -57 -17 -179 -91 l-32 -20 -36 68
c-59 112 -101 163 -133 162 -15 0 -103 -37 -197 -80z m241 -154 c60 -111 86
-139 118 -129 11 4 61 31 109 61 49 30 89 53 91 52 77 -110 96 -139 96 -148 0
-13 -49 -47 -139 -96 -101 -54 -103 -65 -22 -190 34 -51 61 -98 61 -103 0 -8
-203 -132 -216 -132 -2 0 -26 46 -53 103 -52 105 -82 147 -105 147 -7 0 -51
-17 -97 -39 -123 -56 -122 -56 -143 -18 -11 17 -32 48 -47 68 l-28 35 97 65
c124 83 125 89 45 207 -32 48 -62 93 -66 100 -6 9 22 27 105 67 62 29 119 53
127 52 7 -1 38 -47 67 -102z"/>
<path d="M1955 3039 c-120 -49 -223 -95 -227 -102 -12 -18 -9 -62 4 -75 7 -7
23 -12 36 -12 33 0 465 177 480 197 27 37 2 83 -46 83 -15 -1 -126 -41 -247
-91z"/>
<path d="M1360 2245 c-73 -33 -113 -98 -114 -185 -1 -145 105 -233 249 -206
48 9 109 70 125 124 26 83 -26 208 -106 254 -44 26 -112 31 -154 13z m126
-141 c35 -45 36 -100 5 -125 -56 -45 -131 -5 -131 71 0 50 14 78 43 89 32 12
55 2 83 -35z"/>
<path d="M809 2100 c-48 -14 -78 -42 -105 -96 -23 -46 -26 -64 -21 -113 9
-100 64 -172 146 -190 126 -27 231 54 231 179 -1 143 -130 257 -251 220z m101
-130 c65 -65 45 -160 -33 -160 -74 0 -114 111 -60 165 21 21 69 19 93 -5z"/>
<path d="M1195 1696 c-38 -17 -80 -62 -95 -101 -19 -49 -14 -141 11 -191 32
-68 85 -99 169 -99 56 0 73 4 109 28 105 70 105 223 -1 324 -55 53 -128 68
-193 39z m114 -121 c62 -52 61 -137 -2 -158 -81 -27 -143 85 -86 157 26 33 49
33 88 1z"/>
<path d="M3772 4504 c-22 -15 -22 -16 -16 -217 5 -160 10 -206 22 -219 20 -24
55 -23 77 2 16 18 17 37 13 212 l-5 192 -27 23 c-32 27 -35 28 -64 7z"/>
<path d="M4253 4443 c-25 -23 -143 -292 -143 -327 0 -34 38 -60 71 -47 19 7
39 42 92 162 37 85 67 163 67 175 0 24 -29 54 -52 54 -9 0 -25 -8 -35 -17z"/>
<path d="M4442 3975 c-100 -67 -112 -78 -112 -105 0 -28 30 -60 56 -60 14 0
226 138 236 154 23 34 -5 86 -45 86 -12 0 -73 -34 -135 -75z"/>
</g>
</svg>
