<?xml version="1.0" standalone="no"?>
<!DOCTYPE svg PUBLIC "-//W3C//DTD SVG 20010904//EN"
 "http://www.w3.org/TR/2001/REC-SVG-20010904/DTD/svg10.dtd">
<svg version="1.0" xmlns="http://www.w3.org/2000/svg"
 width="50px" height="50px" viewBox="0 0 512.000000 512.000000"
 preserveAspectRatio="xMidYMid meet">

<g transform="translate(0.000000,512.000000) scale(0.100000,-0.100000)"
fill="#000000" stroke="none">
<path d="M481 5106 c-71 -25 -135 -99 -151 -171 -5 -25 -10 -29 -31 -25 -52
11 -125 3 -165 -18 -52 -27 -107 -90 -122 -141 -18 -58 -16 -863 2 -914 22
-61 65 -107 124 -134 46 -22 65 -25 122 -21 l68 5 6 -37 c8 -54 58 -116 116
-145 139 -70 305 6 339 155 6 25 11 123 11 218 l0 172 125 0 125 0 0 -754 c0
-747 0 -754 21 -780 26 -33 79 -36 109 -6 20 20 20 33 20 1086 l0 1066 30 30
c25 24 36 29 58 23 15 -3 36 -15 47 -26 18 -18 20 -35 23 -213 3 -178 5 -195
23 -212 27 -24 75 -22 102 5 21 21 22 30 25 259 1 130 4 247 7 260 12 50 110
59 135 12 6 -11 10 -121 10 -259 0 -237 0 -240 23 -267 31 -35 82 -38 109 -5
16 21 18 45 18 278 0 174 4 261 12 276 32 61 103 64 133 6 12 -22 15 -79 15
-282 0 -233 2 -257 18 -278 27 -33 78 -30 109 5 23 27 23 30 23 269 1 258 2
267 51 286 30 11 83 -8 93 -34 3 -9 6 -148 6 -308 0 -161 4 -309 9 -330 12
-50 45 -84 94 -99 l38 -12 -3 -195 c-3 -192 -4 -197 -31 -251 -38 -75 -83
-118 -209 -206 -60 -42 -112 -84 -118 -94 -16 -29 -12 -374 5 -497 17 -122 31
-177 104 -417 64 -211 107 -421 121 -596 10 -125 13 -137 36 -157 14 -13 33
-23 43 -23 10 0 69 34 132 76 247 164 525 266 844 309 133 18 165 35 165 87 0
30 -38 78 -62 78 -47 0 -309 -46 -404 -70 -189 -49 -406 -140 -561 -235 l-42
-25 -6 47 c-28 206 -69 386 -140 613 -73 235 -86 308 -92 535 l-5 200 93 65
c113 78 176 141 217 218 53 100 63 151 69 355 l6 187 73 0 74 0 0 -186 c0
-113 5 -202 12 -225 15 -52 73 -117 122 -140 54 -24 148 -24 202 0 52 24 112
94 125 147 l11 42 62 -5 c79 -7 126 8 179 56 67 60 77 93 77 268 l0 152 -26
20 c-35 27 -57 26 -91 -3 -28 -24 -28 -25 -31 -165 -4 -137 -5 -142 -29 -161
-39 -31 -86 -26 -117 11 l-26 31 0 401 c0 434 1 440 54 465 32 16 69 9 96 -18
18 -18 20 -34 20 -132 0 -126 12 -183 40 -198 30 -16 68 -12 91 11 19 19 20
30 17 183 -3 159 -4 164 -31 205 -53 80 -165 126 -250 103 -34 -10 -35 -9 -41
22 -10 54 -60 122 -113 153 -40 24 -59 28 -119 28 -61 0 -77 -4 -120 -30 -30
-19 -60 -49 -79 -79 l-30 -49 -3 -209 -3 -209 -147 3 -147 3 -5 145 c-5 155
-14 182 -72 237 -59 56 -173 72 -247 36 -36 -18 -42 -19 -53 -5 -23 27 -111
62 -158 62 -47 0 -135 -35 -158 -62 -11 -14 -17 -13 -53 5 -101 50 -239 4
-297 -99 -7 -13 -16 -13 -55 -3 -91 22 -194 -23 -243 -107 -23 -38 -29 -63
-32 -131 l-5 -83 -122 0 -123 0 -4 203 c-3 185 -5 205 -25 243 -57 107 -184
159 -292 120z m136 -160 l28 -24 0 -620 0 -620 -24 -26 c-49 -52 -133 -25
-146 46 -3 18 -5 300 -3 626 l3 594 28 24 c36 31 78 31 114 0z m2376 12 c48
-25 46 -8 47 -661 l0 -618 -25 -24 c-16 -17 -35 -25 -60 -25 -25 0 -44 8 -60
25 l-25 24 0 618 c1 470 4 622 13 634 28 37 72 48 110 27z m-2704 -214 l31
-26 0 -419 0 -420 -25 -24 c-24 -25 -65 -32 -100 -19 -42 17 -45 42 -45 466 0
436 0 437 54 458 35 14 53 11 85 -16z m761 -449 l0 -95 -125 0 -125 0 0 95 0
95 125 0 125 0 0 -95z m1670 0 l0 -95 -150 0 -150 0 0 95 0 95 150 0 150 0 0
-95z"/>
<path d="M4835 2610 c-165 -33 -322 -97 -450 -183 -78 -53 -195 -166 -242
-234 -34 -50 -40 -54 -68 -49 -16 3 -90 10 -164 17 -150 12 -182 6 -201 -40
-13 -32 0 -75 27 -89 10 -5 61 -13 113 -17 52 -4 142 -13 200 -21 57 -8 112
-11 123 -8 10 3 38 36 61 72 161 251 403 380 799 428 79 9 113 72 67 122 -18
19 -31 22 -98 21 -42 0 -118 -9 -167 -19z"/>
<path d="M1071 2254 c-21 -26 -21 -34 -21 -709 0 -752 -1 -738 63 -831 48 -70
111 -108 253 -154 382 -124 827 -187 1480 -210 480 -17 772 11 1233 121 140
33 179 35 243 13 88 -30 120 -69 223 -275 93 -184 111 -209 155 -209 27 0 70
43 70 70 0 12 -40 104 -89 205 -70 144 -100 196 -140 238 -81 86 -194 137
-305 137 -26 0 -114 -15 -195 -34 -401 -94 -611 -120 -981 -119 -610 2 -1127
59 -1521 167 -229 63 -285 93 -320 171 -17 38 -19 82 -19 721 0 671 0 681 -20
702 -30 32 -82 30 -109 -4z"/>
</g>
</svg>
