<?xml version="1.0" standalone="no"?>
<!DOCTYPE svg PUBLIC "-//W3C//DTD SVG 20010904//EN"
 "http://www.w3.org/TR/2001/REC-SVG-20010904/DTD/svg10.dtd">
<svg version="1.0" xmlns="http://www.w3.org/2000/svg"
 width="50px" height="50px" viewBox="0 0 512.000000 512.000000"
 preserveAspectRatio="xMidYMid meet">

<g transform="translate(0.000000,512.000000) scale(0.100000,-0.100000)"
fill="#000000" stroke="none">
<path d="M154 4641 c-23 -10 -54 -36 -70 -57 l-29 -37 -3 -1474 c-2 -1432 -2
-1474 17 -1511 10 -20 28 -45 39 -55 51 -46 49 -46 935 -47 l837 0 0 -180 0
-180 -140 0 c-130 0 -140 -1 -150 -20 -18 -33 -8 -73 20 -87 31 -16 1853 -19
1894 -3 30 11 43 51 27 86 -10 24 -12 24 -151 24 l-140 0 0 180 0 180 270 0
269 0 3 -367 c3 -420 2 -415 95 -514 181 -195 503 -130 600 121 15 39 17 93
21 403 l3 357 207 0 c261 1 297 12 343 102 18 36 19 84 19 1498 0 1414 -1
1462 -19 1498 -23 46 -46 67 -94 87 -32 13 -295 15 -2399 15 -2286 0 -2364 -1
-2404 -19z m4774 -117 l22 -15 0 -1449 0 -1449 -22 -15 c-19 -13 -58 -16 -225
-16 l-203 0 0 110 0 110 97 0 c76 0 100 4 115 17 17 15 18 67 18 1241 0 1126
-1 1227 -17 1244 -15 17 -82 18 -1737 18 -947 0 -1726 -4 -1732 -8 -6 -4 -17
-18 -24 -31 -10 -20 -9 -27 8 -50 l19 -26 1682 -3 1681 -2 0 -1140 0 -1140
-55 0 -55 0 0 113 c0 97 -3 119 -22 157 -13 25 -38 55 -57 67 -33 22 -41 23
-280 23 -271 -1 -285 -4 -333 -65 -21 -27 -23 -41 -26 -162 l-4 -133 -1634 0
-1634 0 0 1140 0 1140 192 0 c164 0 194 2 210 17 22 20 23 61 1 85 -15 16 -36
18 -251 18 -205 0 -238 -2 -254 -17 -17 -15 -18 -67 -18 -1241 0 -1126 1
-1227 17 -1244 15 -17 81 -18 1695 -18 l1678 0 0 -110 0 -110 -1783 0 c-1597
0 -1785 2 -1805 16 l-22 15 0 1449 0 1449 22 15 c34 24 4702 24 4736 0z m-558
-2383 c6 -13 10 -232 10 -640 l0 -621 -49 0 c-57 0 -81 -18 -81 -60 0 -37 32
-60 82 -60 l37 0 -11 -32 c-6 -17 -30 -51 -54 -74 -71 -72 -181 -91 -268 -48
-57 29 -126 107 -126 144 0 6 38 10 103 10 121 0 147 11 147 65 0 48 -20 55
-149 55 l-111 0 0 633 c0 349 3 637 7 640 3 4 107 7 229 7 211 0 224 -1 234
-19z m-1252 -858 l-3 -178 -555 0 -555 0 -3 178 -2 177 560 0 560 0 -2 -177z"/>
<path d="M2475 3619 c-242 -35 -427 -194 -511 -439 -25 -73 -26 -270 -2 -346
75 -236 251 -394 491 -440 76 -15 101 -16 178 -6 49 7 100 18 114 24 44 20 45
91 2 107 -13 5 -52 2 -97 -7 -253 -51 -507 114 -575 374 -52 200 39 424 217
537 88 56 134 69 248 74 116 6 187 -11 279 -65 108 -63 205 -201 231 -329 12
-55 9 -176 -6 -235 -12 -53 62 -91 99 -50 26 28 40 126 34 227 -18 298 -238
531 -542 575 -79 11 -78 11 -160 -1z"/>
<path d="M2442 3288 c-9 -9 -12 -86 -12 -284 0 -271 0 -273 22 -288 12 -9 28
-16 35 -16 21 0 370 267 375 286 2 11 2 27 0 37 -2 10 -82 76 -177 148 -176
130 -212 148 -243 117z m229 -309 c-18 -15 -52 -41 -77 -58 l-44 -32 0 116 0
115 76 -57 76 -57 -31 -27z"/>
<path d="M2935 2673 c-49 -53 -57 -89 -27 -116 32 -29 66 -21 106 24 54 59 63
83 42 114 -27 42 -68 34 -121 -22z"/>
<path d="M3970 2020 c-29 -29 -26 -74 7 -100 64 -50 143 29 93 93 -26 33 -71
36 -100 7z"/>
<path d="M3970 1720 c-29 -29 -26 -74 7 -100 64 -50 143 29 93 93 -26 33 -71
36 -100 7z"/>
<path d="M4210 1720 c-29 -29 -26 -74 7 -100 64 -50 143 29 93 93 -26 33 -71
36 -100 7z"/>
<path d="M3970 1480 c-29 -29 -26 -74 7 -100 64 -50 143 29 93 93 -26 33 -71
36 -100 7z"/>
<path d="M4210 1480 c-29 -29 -26 -74 7 -100 64 -50 143 29 93 93 -26 33 -71
36 -100 7z"/>
<path d="M3970 1220 c-29 -29 -26 -74 7 -100 64 -50 143 29 93 93 -26 33 -71
36 -100 7z"/>
<path d="M4210 1220 c-29 -29 -26 -74 7 -100 64 -50 143 29 93 93 -26 33 -71
36 -100 7z"/>
</g>
</svg>
