<?xml version="1.0" standalone="no"?>
<!DOCTYPE svg PUBLIC "-//W3C//DTD SVG 20010904//EN"
 "http://www.w3.org/TR/2001/REC-SVG-20010904/DTD/svg10.dtd">
<svg version="1.0" xmlns="http://www.w3.org/2000/svg"
 width="50px" height="50px" viewBox="0 0 512.000000 512.000000"
 preserveAspectRatio="xMidYMid meet">

<g transform="translate(0.000000,512.000000) scale(0.100000,-0.100000)"
fill="#000000" stroke="none">
<path d="M696 5099 c-17 -13 -62 -92 -118 -203 -49 -99 -91 -182 -92 -182 0
-1 -84 -14 -186 -28 -233 -33 -227 -32 -256 -61 -18 -18 -24 -35 -24 -66 0
-41 4 -47 152 -196 l152 -153 -33 -204 c-30 -178 -33 -208 -21 -235 13 -34 54
-61 90 -61 12 0 105 44 208 97 l187 97 184 -98 c162 -86 189 -97 220 -92 48 7
81 46 81 94 0 20 -14 120 -31 222 l-32 185 146 141 c80 77 151 153 157 169 14
37 5 77 -25 105 -21 19 -54 27 -233 53 l-210 30 -91 188 c-74 154 -96 191
-120 204 -41 21 -73 19 -105 -6z m208 -564 c17 -7 84 -20 149 -30 l118 -17
-100 -103 c-72 -72 -101 -109 -101 -126 0 -13 9 -75 20 -138 11 -63 18 -117
16 -119 -2 -2 -57 24 -121 58 -91 47 -124 60 -145 55 -15 -3 -74 -31 -131 -61
-57 -29 -106 -54 -110 -54 -3 0 2 48 12 108 32 182 34 172 -77 280 -53 51 -94
95 -92 97 2 3 56 12 119 21 63 9 126 23 142 31 20 10 43 46 89 136 l61 122 60
-124 c51 -103 66 -126 91 -136z"/>
<path d="M4470 4966 c-289 -84 -535 -158 -547 -164 -13 -7 -27 -21 -33 -32 -6
-12 -10 -245 -10 -670 l0 -651 -43 26 c-287 168 -647 25 -741 -294 -21 -70
-21 -202 0 -272 62 -212 258 -359 479 -359 218 0 391 123 474 338 l25 67 6
564 5 565 460 132 c253 73 477 138 498 144 25 7 45 22 57 43 19 30 20 52 20
334 0 213 -4 310 -12 328 -13 30 -56 55 -90 54 -13 0 -259 -69 -548 -153z
m450 -254 l0 -179 -352 -101 c-194 -56 -383 -111 -420 -121 l-68 -20 0 177 0
177 418 121 c229 67 418 122 420 123 1 0 2 -79 2 -177z m-1213 -1398 c103 -50
165 -148 165 -265 1 -58 -4 -79 -31 -133 -50 -102 -132 -156 -246 -164 -122
-7 -232 55 -288 163 -28 56 -35 167 -13 232 55 166 251 246 413 167z"/>
<path d="M2304 4251 c-12 -5 -31 -22 -44 -38 -19 -25 -21 -37 -18 -116 3 -83
5 -90 31 -113 18 -15 41 -24 63 -24 76 0 104 42 104 154 0 69 -3 79 -27 106
-30 32 -75 45 -109 31z"/>
<path d="M1904 3851 c-12 -5 -31 -22 -44 -38 -29 -37 -23 -98 15 -130 23 -20
37 -23 111 -23 96 0 117 8 139 50 22 43 18 76 -14 112 -28 31 -33 33 -108 35
-43 2 -88 -1 -99 -6z"/>
<path d="M2604 3851 c-12 -5 -31 -22 -44 -38 -29 -37 -23 -98 15 -130 23 -20
37 -23 111 -23 96 0 117 8 139 50 22 43 18 76 -14 112 -28 31 -33 33 -108 35
-43 2 -88 -1 -99 -6z"/>
<path d="M2304 3551 c-12 -5 -31 -22 -44 -38 -19 -25 -21 -37 -18 -116 3 -83
5 -90 31 -113 18 -15 41 -24 63 -24 76 0 104 42 104 154 0 69 -3 79 -27 106
-30 32 -75 45 -109 31z"/>
<path d="M2155 2634 c-173 -51 -200 -69 -200 -135 0 -34 6 -46 33 -70 18 -16
42 -29 55 -29 19 0 100 21 176 45 21 6 21 5 21 -172 l0 -178 -578 -164 c-317
-91 -596 -171 -620 -177 l-42 -13 0 178 0 178 103 28 c128 35 153 48 173 87
13 26 14 38 5 69 -14 46 -44 69 -89 69 -35 0 -300 -72 -340 -92 -53 -27 -52
-17 -52 -713 l0 -645 -38 25 c-92 61 -239 88 -354 66 -233 -46 -408 -256 -408
-491 0 -270 230 -500 500 -500 230 0 442 172 489 398 7 35 11 239 11 595 l0
542 620 176 620 176 0 -289 0 -288 -38 25 c-92 61 -239 88 -354 66 -100 -20
-184 -65 -259 -140 -261 -261 -165 -686 186 -821 80 -31 233 -34 315 -6 168
57 291 189 335 361 23 89 23 1791 0 1835 -33 63 -67 63 -270 4z m-112 -1444
c73 -27 130 -79 164 -148 23 -47 28 -70 28 -132 0 -85 -21 -142 -74 -203 -82
-92 -237 -121 -353 -64 -107 53 -162 143 -163 267 0 62 5 85 28 132 67 137
227 201 370 148z m-1409 -424 c105 -51 161 -144 161 -266 0 -85 -21 -142 -74
-203 -82 -92 -237 -121 -353 -64 -160 79 -215 278 -118 430 80 126 246 170
384 103z"/>
<path d="M1584 2471 c-12 -5 -31 -22 -44 -38 -47 -60 -1 -153 76 -153 46 0 70
14 89 50 22 43 18 76 -12 110 -30 32 -75 45 -109 31z"/>
<path d="M3900 2193 c-35 -13 -58 -50 -166 -265 -63 -126 -118 -228 -123 -228
-51 0 -500 -75 -517 -87 -31 -20 -48 -72 -34 -109 6 -16 89 -105 191 -205
l182 -175 -42 -245 c-23 -134 -41 -254 -41 -266 0 -13 13 -37 29 -55 49 -54
74 -48 326 86 l220 117 75 -38 c41 -21 148 -76 236 -123 l162 -84 38 15 c27
10 44 25 56 49 16 34 15 43 -27 285 l-43 250 189 191 c174 175 189 193 189
226 0 46 -31 85 -78 97 -20 5 -139 24 -263 42 l-226 32 -117 234 c-107 214
-119 235 -151 249 -37 15 -42 16 -65 7z m110 -493 c61 -121 86 -163 107 -174
16 -7 103 -24 196 -37 92 -13 167 -26 167 -30 0 -4 -56 -59 -125 -124 -87 -82
-127 -126 -133 -148 -6 -21 1 -84 20 -197 15 -91 28 -169 28 -173 0 -5 -69 28
-154 72 -105 55 -165 81 -188 81 -23 0 -82 -26 -186 -80 -83 -44 -153 -80
-155 -80 -2 0 9 75 24 168 16 92 29 178 29 191 0 18 -35 60 -132 157 -72 74
-130 135 -127 137 2 2 82 15 177 29 138 21 178 30 195 46 12 12 56 89 97 171
41 83 76 151 77 151 2 0 39 -72 83 -160z"/>
</g>
</svg>
