<?xml version="1.0" standalone="no"?>
<!DOCTYPE svg PUBLIC "-//W3C//DTD SVG 20010904//EN"
 "http://www.w3.org/TR/2001/REC-SVG-20010904/DTD/svg10.dtd">
<svg version="1.0" xmlns="http://www.w3.org/2000/svg"
 width="220px" height="55px" viewBox="0 0 860.000000 201.000000"
 preserveAspectRatio="xMidYMid meet">

<g transform="translate(0.000000,201.000000) scale(0.100000,-0.100000)"
fill="#8D2A2A" stroke="none">
<path d="M895 2004 c-160 -24 -285 -67 -405 -138 -226 -134 -387 -350 -457
-615 -36 -134 -38 -344 -4 -474 94 -363 346 -628 698 -733 108 -32 319 -44
440 -24 417 67 756 406 823 823 20 122 8 332 -24 441 -104 348 -380 611 -731
697 -78 19 -277 32 -340 23z m30 -79 c0 -16 4 -36 8 -42 5 -9 3 -13 -7 -13 -8
0 -20 8 -26 18 -9 15 -10 15 -8 0 2 -9 -1 -18 -7 -20 -5 -2 -11 19 -13 45 -3
48 -3 48 25 45 24 -3 28 -8 28 -33z m103 -8 c8 -21 11 -41 7 -45 -4 -4 -10 -1
-12 6 -3 6 -13 12 -23 12 -10 0 -20 -6 -23 -12 -2 -7 -7 -10 -11 -7 -10 9 25
90 37 86 5 -1 16 -20 25 -40z m-195 -9 c6 -42 -1 -58 -23 -58 -21 0 -28 9 -40
50 -9 32 6 54 16 23 3 -10 10 -27 15 -38 7 -16 9 -14 8 15 -1 48 0 52 10 46 5
-3 11 -20 14 -38z m360 -7 c10 -49 5 -60 -18 -37 -20 19 -32 20 -38 4 -2 -7
-7 -10 -11 -6 -10 9 36 89 49 85 5 -2 13 -23 18 -46z m-466 -3 c-1 -13 2 -33
7 -45 11 -34 -12 -29 -25 4 -6 15 -16 31 -22 35 -9 6 -8 11 3 18 25 16 38 11
37 -12z m599 -4 c-15 -39 -18 -64 -7 -64 6 0 11 -5 11 -11 0 -8 -35 -4 -47 5
-6 6 31 86 40 86 5 0 6 -7 3 -16z m-689 -45 c9 -22 17 -30 28 -26 22 9 18 -11
-5 -23 -18 -10 -22 -7 -36 27 -9 21 -18 41 -21 46 -2 4 2 7 9 7 8 0 19 -14 25
-31z m793 -6 c0 -38 -10 -73 -21 -73 -5 0 -9 7 -9 15 0 14 -11 19 -37 16 -20
-3 -15 7 20 39 40 37 47 37 47 3z m-845 -24 c19 -36 14 -59 -15 -59 -22 0 -63
57 -53 74 4 6 11 2 17 -8 6 -10 17 -25 24 -34 12 -15 13 -15 9 3 -3 11 -8 28
-12 38 -13 30 14 19 30 -14z m617 -13 c146 -37 261 -100 372 -205 107 -102
177 -217 222 -368 24 -76 27 -106 27 -223 1 -144 -11 -209 -60 -325 -87 -206
-276 -384 -486 -456 -404 -139 -839 45 -1021 432 -49 103 -67 177 -73 305 -7
132 6 216 51 334 96 258 326 455 601 515 101 23 258 19 367 -9z m-712 -21 c0
-3 -11 -10 -25 -15 -14 -5 -25 -17 -25 -25 0 -24 29 -29 50 -10 16 15 20 15
20 4 0 -21 -21 -39 -45 -39 -40 0 -61 50 -33 78 12 12 58 17 58 7z m1070 -1
c0 -3 -9 -17 -20 -31 -15 -20 -17 -29 -9 -39 15 -18 -11 -20 -28 -3 -9 9 -5
20 14 45 23 31 43 44 43 28z m39 -91 c-19 -18 -35 -29 -37 -23 -5 15 48 71 60
64 6 -4 -5 -22 -23 -41z m82 -15 c9 -17 9 -24 -5 -33 -9 -7 -16 -17 -16 -24 0
-16 -35 -14 -49 3 -9 11 -6 20 16 44 34 37 39 38 54 10z m-1327 -33 c20 -9 34
-20 30 -26 -3 -6 -9 -8 -12 -5 -9 10 -31 -15 -25 -30 11 -30 -14 -12 -30 21
-28 60 -23 65 37 40z m1400 -57 c-3 -5 -13 -3 -21 4 -14 11 -15 10 -9 -10 8
-24 -3 -29 -23 -9 -11 10 -12 8 -6 -10 7 -27 -7 -30 -26 -7 -11 14 -8 20 21
44 32 26 36 27 52 13 10 -9 15 -20 12 -25z m-1487 -29 c18 -18 25 -20 38 -9
18 15 19 7 5 -21 -11 -19 -12 -19 -45 7 -19 15 -35 30 -35 35 0 15 12 10 37
-12z m1534 -25 c15 -18 1 -49 -22 -49 -8 0 -18 -6 -22 -13 -11 -17 -28 -5 -20
15 4 10 2 14 -5 9 -6 -3 -13 -2 -16 3 -5 8 49 50 65 51 4 0 12 -7 20 -16z
m-1599 -83 c6 -11 18 -17 26 -13 10 3 13 0 10 -9 -3 -8 -11 -13 -18 -11 -7 2
-9 -5 -5 -18 l7 -21 -41 21 c-45 22 -49 31 -25 54 20 21 31 20 46 -3z m1648 0
c14 -28 13 -33 -8 -27 -10 4 -27 -1 -38 -9 -22 -17 -34 -19 -34 -5 0 5 14 17
30 25 17 9 28 20 25 25 -4 6 -2 10 4 10 6 0 15 -9 21 -19z m-1672 -93 c15 -15
15 -51 0 -66 -28 -28 -78 -7 -78 33 0 12 5 26 12 33 7 7 21 12 33 12 12 0 26
-5 33 -12z m1712 4 c0 -4 -16 -24 -36 -43 -33 -30 -36 -32 -31 -11 4 15 -1 29
-16 42 l-21 20 52 0 c29 0 52 -4 52 -8z m36 -97 c11 -45 -47 -86 -74 -52 -5 6
-12 21 -16 33 -5 17 -1 23 26 31 50 16 57 15 64 -12z m-1806 -36 c0 -10 7 -19
15 -19 8 0 15 -6 15 -14 0 -11 -9 -11 -45 -3 -39 9 -44 13 -39 31 12 39 54 43
54 5z m85 -565 c38 -92 -11 -131 -66 -53 -39 55 -31 91 11 49 l20 -20 0 23 c0
21 7 37 17 37 1 0 10 -16 18 -36z m1630 -13 c-4 -9 5 -5 19 8 29 28 41 23 32
-12 -8 -33 -51 -77 -74 -77 -29 0 -35 27 -16 83 16 47 18 49 31 32 7 -11 11
-26 8 -34z m-1559 -139 c3 -18 2 -38 -4 -45 -8 -9 -6 -16 7 -24 15 -10 17 -7
13 18 -2 16 0 29 6 29 16 0 52 -65 52 -94 0 -21 -5 -26 -26 -26 -29 0 -98 63
-91 84 2 6 -7 19 -20 29 -13 10 -30 32 -38 48 -14 27 -14 29 1 29 10 0 26 -8
36 -17 18 -16 18 -16 12 0 -3 9 -3 25 1 34 6 16 8 15 25 -7 11 -14 22 -40 26
-58z m1502 43 c-4 -34 -4 -34 14 -15 18 19 48 27 48 14 0 -17 -43 -74 -59 -79
-12 -4 -17 -12 -14 -24 3 -11 -8 -29 -32 -50 -65 -57 -111 -22 -63 49 26 38
44 41 41 5 -1 -22 1 -23 17 -13 17 11 17 14 5 28 -19 21 -19 26 6 77 25 52 43
56 37 8z m-1368 -191 c22 -26 30 -44 27 -61 -3 -17 2 -27 17 -35 17 -9 19 -8
9 3 -7 7 -13 24 -13 37 l0 23 36 -27 c41 -31 57 -63 42 -81 -7 -9 -7 -13 0
-13 6 0 18 -3 27 -7 16 -6 16 -4 0 21 -23 35 -13 43 22 18 72 -51 81 -92 21
-92 -36 0 -102 35 -94 49 3 5 -7 11 -22 14 -32 7 -84 45 -77 57 3 4 -8 13 -24
20 -34 14 -77 57 -67 67 4 4 20 2 36 -4 27 -10 29 -10 20 7 -27 50 -3 52 40 4z
m1226 4 c-5 -25 -4 -30 6 -20 14 14 48 16 48 3 0 -15 -69 -71 -88 -71 -13 0
-14 -2 -3 -9 10 -7 2 -15 -31 -35 -25 -14 -52 -26 -61 -26 -10 0 -14 -6 -11
-14 7 -18 -58 -48 -94 -44 -46 5 -41 41 10 78 35 26 44 29 46 15 2 -9 -2 -22
-8 -30 -13 -16 -10 -18 13 -9 9 3 13 13 10 25 -7 26 54 92 79 85 10 -2 18 1
18 6 0 16 49 78 62 78 7 0 8 -12 4 -32z m-887 -192 c9 -10 9 -16 1 -21 -6 -4
-9 -13 -6 -20 7 -20 -17 -47 -37 -39 -9 3 -17 12 -17 20 0 17 17 18 23 2 4 -9
6 -8 6 3 1 8 -4 20 -11 27 -8 8 -8 15 2 27 16 19 24 19 39 1z m557 -31 c27
-36 27 -58 0 -36 -11 10 -18 8 -35 -10 -21 -22 -21 -22 -21 -2 0 35 12 83 21
83 4 0 20 -16 35 -35z m-496 8 c0 -25 -23 -83 -30 -78 -5 3 -7 11 -5 18 2 7 6
24 9 40 6 24 26 40 26 20z m392 -10 c25 -22 23 -50 -6 -68 -45 -30 -91 16 -61
61 18 28 41 31 67 7z m-325 -20 l6 -28 10 28 c12 38 23 26 19 -22 -4 -45 -26
-56 -38 -19 l-6 21 -13 -23 c-16 -29 -23 -15 -18 33 6 44 29 50 40 10z m130
-28 c15 -45 13 -51 -17 -33 -18 10 -24 10 -27 1 -5 -15 -23 -18 -23 -4 0 22
32 82 42 79 6 -2 17 -21 25 -43z m63 10 c0 -24 5 -35 15 -35 8 0 15 -4 15 -10
0 -5 -11 -10 -25 -10 -23 0 -25 4 -25 45 0 25 5 45 10 45 6 0 10 -16 10 -35z"/>
<path d="M890 1924 c0 -8 5 -12 10 -9 6 3 10 10 10 16 0 5 -4 9 -10 9 -5 0
-10 -7 -10 -16z"/>
<path d="M904 1722 c-7 -4 -15 -45 -20 -92 -5 -47 -10 -71 -11 -55 -2 17 -6
45 -9 64 l-6 34 -52 -58 c-65 -73 -86 -72 -86 7 l0 52 -60 -59 c-57 -57 -60
-58 -60 -32 0 15 -4 27 -9 27 -8 0 -74 -51 -105 -81 -6 -5 85 -9 227 -9 l237
0 0 44 c0 78 -13 166 -24 166 -6 0 -16 -4 -22 -8z"/>
<path d="M1355 1581 c-68 -17 -124 -61 -144 -114 -19 -50 -14 -76 22 -97 45
-28 110 -26 171 5 109 55 196 9 196 -104 0 -37 -3 -42 -34 -55 -51 -21 -58
-41 -13 -33 31 5 37 3 37 -12 0 -10 7 -24 16 -31 13 -12 15 -7 14 41 0 30 2
89 6 132 5 61 3 88 -11 122 -22 58 -93 121 -158 140 -55 16 -58 16 -102 6z
m34 -57 c15 -19 21 -40 20 -73 l-1 -46 -9 45 c-5 25 -18 57 -29 72 -26 36 -8
37 19 2z m-71 -45 c-2 -6 -8 -10 -13 -10 -5 0 -11 4 -13 10 -2 6 4 11 13 11 9
0 15 -5 13 -11z"/>
<path d="M1081 1468 c0 -29 -2 -88 -6 -130 -7 -72 -6 -82 19 -132 80 -163 310
-184 387 -34 25 49 22 85 -11 110 -46 34 -89 33 -170 -2 -86 -38 -122 -35
-166 11 -24 25 -29 38 -29 85 0 55 1 56 35 68 40 13 39 32 -1 29 -21 -2 -28 3
-33 22 -11 44 -26 27 -25 -27z m225 -263 c0 -20 10 -49 23 -66 31 -41 20 -48
-13 -9 -18 22 -26 43 -26 71 0 48 15 52 16 4z m102 -26 c-2 -6 -8 -10 -13 -10
-5 0 -11 4 -13 10 -2 6 4 11 13 11 9 0 15 -5 13 -11z"/>
<path d="M394 1395 c-44 -52 -87 -117 -97 -143 -10 -26 -14 -42 -9 -37 30 32
200 275 193 275 -5 0 -44 -43 -87 -95z"/>
<path d="M419 1293 c-62 -108 -120 -207 -127 -220 -12 -22 -11 -23 18 -23 27
0 33 6 49 43 11 23 57 122 105 220 47 97 82 177 77 177 -4 0 -59 -89 -122
-197z"/>
<path d="M552 1293 c-29 -109 -55 -208 -58 -220 -6 -20 -3 -23 24 -23 36 0 30
-19 72 242 34 212 33 198 22 198 -5 0 -32 -89 -60 -197z"/>
<path d="M680 1270 l0 -220 38 0 39 0 -12 83 c-7 45 -20 144 -30 220 -10 75
-22 137 -26 137 -5 0 -9 -99 -9 -220z"/>
<path d="M760 1483 c0 -5 32 -104 71 -220 70 -212 71 -213 100 -213 16 0 29 3
29 8 0 15 -185 432 -192 432 -5 0 -8 -3 -8 -7z"/>
<path d="M860 1453 c12 -21 39 -66 59 -100 20 -35 39 -63 42 -63 17 0 -11 64
-55 128 -52 75 -84 100 -46 35z"/>
<path d="M930 1486 c0 -2 7 -9 15 -16 12 -10 15 -10 15 4 0 9 -7 16 -15 16 -8
0 -15 -2 -15 -4z"/>
<path d="M995 1010 c-3 -5 -1 -10 4 -10 6 0 11 5 11 10 0 6 -2 10 -4 10 -3 0
-8 -4 -11 -10z"/>
<path d="M644 919 c-4 -7 -9 -45 -12 -86 -3 -53 -8 -73 -18 -73 -11 0 -14 -21
-14 -90 0 -128 21 -173 88 -186 l32 -6 0 86 c0 48 -5 96 -10 106 -8 15 -6 21
9 29 24 14 42 -6 30 -34 -4 -11 -8 -58 -8 -104 l-1 -83 33 6 c17 4 43 18 57
31 23 24 25 34 28 135 3 95 2 110 -12 110 -12 0 -16 11 -17 43 0 23 -3 60 -7
82 l-7 39 -63 2 c-34 1 -65 -2 -68 -7 -4 -6 -11 -6 -19 1 -10 8 -15 8 -21 -1z
m98 -35 c30 2 51 -1 58 -9 13 -16 -4 -30 -22 -18 -22 13 -90 10 -95 -4 -4 -10
-9 -11 -19 -2 -10 8 -11 15 -1 29 7 12 15 16 22 10 6 -5 32 -7 57 -6z m48 -66
c0 -5 0 -11 0 -15 0 -4 -27 -7 -60 -7 -33 0 -60 3 -60 7 0 4 0 10 0 15 0 4 27
7 60 7 33 0 60 -3 60 -7z m-70 -58 c8 5 19 6 25 2 5 -4 19 -7 30 -7 11 0 22
-4 25 -10 5 -9 -125 -15 -143 -7 -4 2 -3 10 4 18 7 9 17 11 28 4 10 -5 23 -5
31 0z"/>
<path d="M1174 894 c-32 -20 -74 -36 -91 -37 -29 -2 -33 -6 -33 -29 0 -25 4
-28 33 -28 17 0 50 11 72 25 107 66 124 66 200 8 38 -29 60 -38 101 -41 47 -4
60 0 129 38 50 28 91 43 115 44 32 0 39 5 43 23 6 30 1 33 -48 33 -30 0 -59
-10 -106 -39 -104 -62 -140 -62 -225 3 -64 49 -109 49 -190 0z"/>
<path d="M1645 806 c-16 -7 -52 -27 -79 -45 -71 -45 -116 -43 -192 9 -78 53
-126 54 -204 5 -33 -22 -67 -35 -87 -35 -30 0 -33 -3 -33 -31 0 -31 0 -32 42
-26 23 3 61 19 87 38 70 49 105 49 170 0 87 -65 146 -66 241 -3 30 19 71 38
90 42 37 6 53 35 28 51 -17 11 -27 11 -63 -5z"/>
<path d="M1210 677 c-14 -8 -43 -23 -65 -35 -22 -12 -52 -22 -67 -22 -23 0
-28 -4 -28 -25 0 -22 4 -25 36 -25 22 0 60 13 100 36 77 43 97 41 173 -16 46
-34 60 -40 104 -40 59 0 117 25 170 74 70 64 29 74 -66 15 -27 -16 -61 -32
-77 -35 -30 -7 -91 19 -149 61 -38 28 -91 33 -131 12z"/>
<path d="M510 573 c0 -125 71 -222 183 -248 l27 -7 0 60 c0 59 0 60 -31 66
-37 7 -93 62 -131 129 -15 26 -32 47 -38 47 -5 0 -10 -21 -10 -47z"/>
<path d="M923 608 c-5 -7 -21 -34 -36 -59 -33 -58 -90 -109 -122 -109 -24 0
-25 -3 -25 -60 0 -33 3 -60 8 -60 4 0 24 5 45 11 87 24 157 126 157 232 0 56
-8 69 -27 45z"/>
<path d="M1220 563 c-8 -3 -34 -19 -59 -35 -26 -16 -59 -28 -79 -28 -30 0 -33
-2 -30 -27 3 -26 6 -28 42 -26 23 2 58 15 87 34 66 42 108 41 161 -2 50 -40
112 -63 136 -50 9 5 28 21 41 35 l24 25 -34 -9 c-49 -15 -81 -4 -145 46 -57
43 -99 54 -144 37z"/>
<path d="M1161 409 c-30 -16 -67 -29 -82 -29 -24 0 -29 -4 -29 -25 0 -22 4
-25 38 -25 27 0 53 10 83 30 56 38 111 40 153 5 23 -18 34 -21 48 -14 27 14
23 24 -24 58 -56 41 -112 41 -187 0z"/>
<path d="M1170 303 c-25 -15 -63 -31 -85 -35 -33 -6 -31 -6 14 -3 67 5 202 45
195 56 -11 19 -80 8 -124 -18z"/>
<path d="M1630 1640 c0 -5 5 -10 11 -10 5 0 7 5 4 10 -3 6 -8 10 -11 10 -2 0
-4 -4 -4 -10z"/>
<path d="M1767 1524 c-8 -8 1 -24 14 -24 5 0 9 7 9 15 0 15 -12 20 -23 9z"/>
<path d="M166 1442 c-3 -6 -1 -14 5 -17 15 -10 25 3 12 16 -7 7 -13 7 -17 1z"/>
<path d="M124 1335 c-4 -9 -2 -21 4 -27 15 -15 44 -1 40 19 -4 23 -36 29 -44
8z"/>
<path d="M1871 1259 c-22 -9 -23 -11 -10 -25 19 -19 49 -8 49 17 0 21 -4 22
-39 8z"/>
<path d="M1543 280 c-11 -17 -11 -18 7 -12 20 7 28 24 13 29 -4 2 -14 -6 -20
-17z"/>
<path d="M720 160 c0 -5 5 -10 11 -10 5 0 7 5 4 10 -3 6 -8 10 -11 10 -2 0 -4
-4 -4 -10z"/>
<path d="M1270 140 c0 -5 5 -10 11 -10 5 0 7 5 4 10 -3 6 -8 10 -11 10 -2 0
-4 -4 -4 -10z"/>
<path d="M1157 133 c-15 -14 -7 -43 12 -43 26 0 36 17 21 35 -14 16 -23 19
-33 8z"/>
<path d="M2275 1010 c0 -553 1 -779 2 -502 2 276 2 728 0 1005 -1 276 -2 50
-2 -503z"/>
<path d="M2550 1976 c0 -33 1 -34 51 -41 35 -5 61 -16 83 -35 l31 -28 6 -474
c5 -392 9 -484 23 -536 49 -189 151 -291 338 -338 96 -24 345 -30 437 -10 161
34 263 109 334 244 75 142 79 175 87 647 8 506 7 504 121 526 58 11 59 12 59
45 l0 34 -262 -2 c-254 -3 -263 -4 -266 -23 -4 -33 11 -43 76 -54 71 -11 119
-40 129 -79 5 -15 8 -216 8 -447 0 -366 -2 -430 -18 -495 -36 -157 -93 -236
-207 -289 -80 -37 -221 -42 -303 -11 -75 28 -167 112 -196 179 -49 115 -51
137 -51 603 0 472 2 492 52 519 12 7 52 18 88 24 63 10 65 11 65 40 l0 30
-342 3 -343 2 0 -34z"/>
<path d="M5985 1999 c-16 -5 -82 -16 -145 -24 -198 -27 -182 -22 -178 -58 3
-31 5 -32 55 -37 87 -9 88 -9 91 -245 l3 -205 -53 25 c-119 56 -316 11 -435
-98 -151 -138 -201 -382 -123 -589 91 -242 388 -346 577 -202 l33 25 0 -45 0
-46 44 0 c24 0 64 9 89 19 37 16 123 39 215 57 19 4 23 10 20 36 -3 28 -8 33
-50 45 -88 25 -83 -21 -84 708 0 701 4 654 -59 634z m-286 -624 c16 -8 47 -35
70 -61 l41 -47 0 -281 0 -282 -32 -31 c-43 -41 -106 -73 -142 -73 -44 0 -111
36 -142 77 -64 84 -94 253 -75 416 13 117 33 174 76 224 58 69 140 92 204 58z"/>
<path d="M7655 1996 c-174 -35 -287 -95 -410 -220 -129 -130 -189 -253 -216
-445 -40 -287 74 -543 312 -698 152 -99 310 -139 514 -130 251 11 431 92 572
258 66 79 105 153 139 264 24 79 27 107 27 230 1 153 -12 219 -62 329 -85 186
-278 340 -497 397 -103 26 -285 33 -379 15z m236 -92 c154 -45 275 -188 331
-394 21 -76 23 -107 23 -290 0 -184 -2 -213 -23 -285 -33 -114 -85 -207 -148
-264 -73 -67 -129 -85 -248 -79 -82 4 -98 8 -164 43 -122 64 -214 188 -263
355 -27 94 -38 359 -20 479 37 235 140 388 294 437 58 18 153 17 218 -2z"/>
<path d="M4514 1990 c-11 -4 -27 -19 -35 -32 -8 -12 -134 -313 -279 -668 -290
-706 -293 -711 -377 -725 -60 -10 -63 -13 -63 -45 l0 -30 241 0 240 0 -3 33
c-3 32 -4 32 -63 37 -73 7 -105 23 -104 53 0 12 35 112 77 222 l77 200 242 3
c222 2 241 1 248 -15 60 -153 135 -379 135 -406 0 -45 -19 -57 -89 -57 -68 0
-81 -7 -81 -41 l0 -29 325 0 325 0 0 35 0 35 -59 0 c-72 0 -108 25 -139 97
-11 27 -122 322 -246 656 -124 334 -233 621 -241 638 -23 43 -79 60 -131 39z
m62 -583 l91 -252 -185 -3 c-108 -1 -190 2 -195 7 -9 9 180 501 192 501 3 0
47 -114 97 -253z"/>
<path d="M6476 1470 c-100 -26 -224 -119 -285 -216 -58 -90 -76 -164 -75 -304
0 -104 4 -134 22 -181 71 -180 186 -257 397 -267 185 -8 309 41 383 152 l33
50 -24 24 -25 24 -43 -42 c-123 -120 -294 -122 -398 -3 -68 77 -100 166 -101
281 l0 62 279 0 c158 0 291 4 305 10 24 9 26 15 26 65 0 99 -59 231 -126 284
-69 54 -264 87 -368 61z m164 -102 c47 -32 72 -87 78 -169 l5 -69 -178 0 -177
0 6 38 c4 20 21 66 38 100 52 108 151 152 228 100z"/>
<path d="M8441 663 c-66 -61 -30 -163 57 -163 48 0 88 29 97 71 20 91 -86 155
-154 92z m116 -15 c46 -43 21 -122 -44 -134 -27 -5 -37 -1 -63 24 -37 37 -39
74 -5 107 31 32 80 33 112 3z"/>
<path d="M8460 595 c0 -25 5 -45 10 -45 6 0 10 7 10 15 0 8 5 15 10 15 6 0 13
-7 16 -15 7 -18 28 -20 21 -2 -2 6 0 20 5 30 13 25 -7 47 -43 47 -28 0 -29 -2
-29 -45z m58 13 c-7 -19 -38 -22 -38 -4 0 10 9 16 21 16 12 0 19 -5 17 -12z"/>
<path d="M5326 254 c-26 -19 -17 -26 13 -10 13 7 20 16 15 19 -5 3 -18 -1 -28
-9z"/>
<path d="M2558 213 c8 -3 12 -29 12 -78 0 -63 4 -78 23 -100 17 -21 32 -27 62
-27 58 0 75 26 75 118 0 59 3 75 18 83 13 8 9 10 -23 10 -22 0 -34 -3 -27 -6
8 -3 12 -29 12 -82 0 -78 -9 -103 -41 -114 -9 -3 -26 1 -38 9 -19 13 -21 25
-21 99 0 57 4 85 13 88 6 3 -8 5 -33 5 -25 0 -39 -2 -32 -5z"/>
<path d="M2783 202 c23 -25 24 -158 2 -182 -14 -15 -12 -17 15 -17 22 0 27 3
19 13 -5 7 -9 43 -7 80 l3 67 55 -76 c30 -42 61 -78 68 -81 9 -4 12 18 12 94
0 84 3 101 18 109 14 8 9 10 -22 11 -35 0 -38 -2 -22 -13 14 -10 16 -25 14
-81 l-3 -69 -63 81 c-43 56 -70 82 -84 82 -20 0 -20 -1 -5 -18z"/>
<path d="M3003 209 c14 -8 17 -25 17 -99 0 -69 -3 -91 -15 -97 -10 -6 -3 -9
24 -8 28 0 37 3 30 12 -6 6 -9 51 -7 100 3 86 3 88 28 88 23 0 28 -9 59 -98
18 -54 38 -96 44 -94 6 2 25 43 43 92 37 98 44 108 70 103 17 -3 19 -15 22
-92 2 -73 0 -90 -14 -100 -14 -10 -9 -12 27 -10 24 2 60 3 80 3 31 1 37 5 41
26 6 30 -8 34 -17 5 -5 -16 -15 -20 -46 -20 l-39 0 0 45 c0 41 2 45 24 45 13
0 27 -6 29 -12 3 -7 6 2 6 21 1 32 0 33 -13 16 -22 -31 -48 -12 -44 32 3 32 7
38 27 39 13 1 32 -7 42 -17 25 -25 27 -24 21 6 -4 25 -5 25 -116 25 -68 0
-106 -4 -97 -9 12 -8 10 -20 -9 -75 -13 -36 -26 -66 -29 -66 -3 0 -16 30 -27
65 -20 60 -20 66 -5 75 11 6 -14 9 -79 9 -69 0 -90 -2 -77 -10z"/>
<path d="M3460 211 c0 -5 4 -11 9 -13 14 -4 16 -165 3 -180 -8 -11 -3 -13 28
-13 29 0 36 3 29 12 -13 14 -8 78 6 78 5 0 21 -18 36 -39 14 -22 36 -43 48
-47 24 -9 28 3 7 20 -8 6 -19 25 -26 42 -11 25 -10 32 4 48 25 27 17 72 -14
88 -29 15 -130 18 -130 4z m116 -26 c23 -35 6 -75 -31 -75 -23 0 -25 4 -25 43
0 24 3 47 7 50 13 14 33 6 49 -18z"/>
<path d="M3670 200 c-27 -27 -25 -56 6 -77 54 -37 73 -60 67 -82 -8 -29 -57
-29 -77 1 l-16 22 0 -26 c0 -21 5 -27 33 -31 43 -6 75 7 88 37 15 33 -2 61
-51 86 -30 15 -40 27 -40 44 0 42 48 44 68 3 10 -22 11 -21 11 4 1 19 -5 28
-21 33 -36 9 -47 7 -68 -14z"/>
<path d="M3798 208 c15 -15 17 -179 2 -194 -6 -6 4 -9 30 -9 26 0 36 3 30 9
-15 15 -13 193 3 199 6 3 -8 6 -32 6 -35 1 -42 -2 -33 -11z"/>
<path d="M3898 208 c14 -14 17 -179 3 -193 -6 -6 6 -9 32 -9 23 1 57 2 75 3
49 2 82 39 82 93 0 78 -52 118 -152 118 -40 0 -49 -3 -40 -12z m130 -34 c16
-19 22 -37 22 -73 0 -59 -22 -84 -72 -79 l-33 3 -3 79 c-2 44 0 86 3 94 8 21
55 7 83 -24z"/>
<path d="M4183 197 c-6 -13 -23 -54 -38 -93 -15 -38 -33 -76 -41 -84 -11 -13
-8 -15 17 -16 23 -1 27 2 18 12 -8 9 -7 21 3 41 11 23 20 28 48 28 30 0 35 -4
44 -33 7 -24 6 -36 -2 -41 -6 -4 40 -6 103 -5 88 1 121 5 140 18 54 36 56 112
5 161 -27 26 -39 30 -103 33 -44 2 -67 0 -59 -6 9 -6 12 -35 10 -103 -3 -86
-5 -94 -23 -94 -16 0 -27 19 -56 100 -20 54 -41 101 -46 102 -5 2 -14 -7 -20
-20z m242 3 c29 -11 55 -63 55 -110 0 -41 -31 -70 -75 -70 l-35 0 0 88 c0 108
3 112 55 92z m-217 -70 c11 -29 10 -30 -20 -30 -25 0 -29 3 -23 18 4 9 10 25
12 34 7 23 19 15 31 -22z"/>
<path d="M4687 170 c-13 -30 -32 -76 -42 -102 -10 -27 -22 -48 -26 -48 -5 0
-9 -3 -9 -7 0 -5 11 -8 24 -8 15 0 21 4 17 10 -5 6 -2 25 6 43 12 29 18 33 46
30 36 -3 67 -49 48 -71 -7 -10 0 -12 29 -12 34 0 37 1 26 15 -8 8 -26 50 -41
92 -15 43 -33 85 -41 95 -11 16 -15 13 -37 -37z m37 -47 c6 -20 4 -23 -18 -23
-29 0 -31 6 -15 47 11 30 19 24 33 -24z"/>
<path d="M4806 212 c7 -4 13 -42 16 -84 4 -93 23 -120 83 -120 59 0 77 25 83
119 3 43 10 81 16 85 6 4 -7 8 -28 8 -36 0 -38 -1 -21 -13 15 -12 17 -24 13
-85 -3 -40 -11 -79 -18 -87 -18 -22 -67 -19 -80 4 -14 27 -13 154 2 169 9 9 2
12 -32 12 -25 0 -40 -4 -34 -8z"/>
<path d="M5023 205 c-3 -9 -3 -19 1 -22 3 -4 6 -1 6 5 0 7 14 12 30 12 l30 0
0 -88 c0 -48 -4 -92 -10 -98 -6 -6 4 -9 30 -9 26 0 36 3 30 9 -6 6 -10 50 -10
98 l0 88 29 0 c16 0 32 -6 34 -12 3 -7 6 -3 6 10 1 21 -2 22 -84 22 -68 0 -87
-3 -92 -15z"/>
<path d="M5274 211 c-64 -27 -86 -126 -39 -174 79 -78 208 -2 176 104 -17 58
-85 92 -137 70z m69 -21 c33 -26 44 -85 23 -134 -14 -34 -27 -41 -66 -37 -30
4 -50 41 -50 96 0 46 4 57 26 74 33 26 35 26 67 1z"/>
<path d="M5440 205 c16 -19 15 -172 0 -190 -8 -9 -3 -12 19 -11 21 1 27 4 20
13 -6 6 -9 41 -7 78 l3 67 55 -76 c30 -41 61 -76 68 -76 9 0 12 25 12 95 0 79
3 96 18 104 13 8 9 10 -23 10 -32 0 -36 -2 -22 -10 13 -8 17 -24 17 -74 0 -36
-4 -65 -9 -65 -5 0 -34 34 -65 75 -39 52 -63 75 -77 75 -18 0 -19 -2 -9 -15z"/>
<path d="M5714 210 c-65 -26 -84 -117 -36 -170 46 -53 135 -42 167 20 8 16 15
38 15 50 0 37 -30 81 -65 96 -39 16 -51 16 -81 4z m71 -23 c34 -29 44 -91 21
-135 -16 -30 -30 -37 -66 -32 -52 6 -69 122 -25 165 30 31 37 31 70 2z"/>
<path d="M5888 213 c18 -7 16 -162 -2 -189 -14 -19 -13 -21 15 -21 20 0 26 4
19 11 -11 11 -12 81 -1 110 6 16 13 7 33 -44 14 -35 30 -66 35 -67 6 -2 21 22
33 54 13 32 26 62 30 66 11 13 22 -104 11 -117 -8 -9 -1 -12 24 -12 23 0 31 3
25 11 -5 6 -12 50 -16 99 -5 70 -4 90 7 97 10 6 7 9 -11 9 -23 0 -29 -9 -57
-82 l-31 -83 -22 50 c-12 28 -28 65 -35 83 -11 26 -20 32 -42 31 -15 0 -22 -3
-15 -6z"/>
<path d="M6223 204 c-6 -11 -25 -56 -43 -101 -18 -46 -36 -83 -41 -83 -5 0 -9
-3 -9 -7 0 -5 14 -8 31 -9 18 -1 26 2 18 7 -9 5 -10 16 -3 41 8 29 14 33 46
36 34 3 37 1 48 -34 9 -25 9 -38 2 -43 -6 -4 7 -6 28 -6 34 0 37 2 26 15 -7 8
-25 51 -41 95 -33 94 -48 117 -62 89z m27 -91 c0 -7 -11 -13 -25 -13 -28 0
-30 8 -13 45 l12 26 13 -23 c7 -13 12 -29 13 -35z"/>
<path d="M6438 208 c14 -14 17 -179 2 -193 -6 -7 17 -9 61 -8 82 1 112 17 129
68 16 47 -10 103 -60 127 -41 21 -152 26 -132 6z m105 -10 c45 -24 66 -83 47
-134 -14 -36 -26 -44 -67 -44 l-33 0 0 88 c0 107 5 116 53 90z"/>
<path d="M6658 214 c15 -7 17 -185 3 -199 -6 -7 17 -10 64 -10 70 0 74 1 80
24 8 31 -1 38 -15 12 -8 -15 -20 -21 -45 -21 -35 0 -35 0 -35 45 0 37 3 45 18
45 10 0 23 -5 30 -12 9 -9 12 -4 12 23 -1 28 -2 31 -11 17 -5 -10 -19 -18 -29
-18 -17 0 -20 7 -20 39 0 22 5 43 11 46 18 12 55 -4 67 -27 11 -22 12 -22 9 7
l-2 30 -75 2 c-41 1 -69 0 -62 -3z"/>
<path d="M6954 202 c-38 -24 -58 -71 -50 -115 16 -87 138 -110 190 -36 61 88
-49 208 -140 151z m77 -2 c16 0 39 -58 39 -100 0 -30 -6 -47 -24 -65 -29 -29
-57 -24 -87 14 -29 36 -22 116 11 143 13 11 30 16 37 13 8 -3 19 -5 24 -5z"/>
<path d="M7194 211 c-65 -28 -86 -126 -38 -175 38 -37 105 -39 139 -4 l20 21
-25 -17 c-13 -9 -39 -16 -57 -16 -43 0 -66 34 -65 98 1 38 6 51 27 70 35 30
51 28 86 -9 29 -31 41 -20 16 14 -14 21 -73 30 -103 18z"/>
<path d="M7383 201 c-39 -25 -53 -49 -53 -96 0 -80 96 -124 168 -78 13 8 21
17 19 20 -3 3 -16 -2 -29 -11 -24 -17 -65 -21 -84 -8 -32 21 -45 102 -24 142
25 47 90 48 115 1 l14 -26 1 27 c0 32 -5 35 -56 43 -29 4 -47 1 -71 -14z"/>
<path d="M7538 213 c15 -6 17 -184 2 -199 -6 -6 4 -9 30 -9 26 0 36 3 30 9
-15 15 -13 193 3 199 6 3 -8 5 -33 5 -25 0 -39 -2 -32 -5z"/>
<path d="M7638 208 c14 -14 17 -179 2 -193 -13 -14 123 -10 150 5 29 15 52 73
44 108 -14 59 -70 92 -156 92 -40 0 -49 -3 -40 -12z m105 -10 c31 -16 45 -37
52 -80 6 -36 -6 -75 -29 -90 -6 -4 -26 -8 -43 -8 l-33 0 0 88 c0 107 5 116 53
90z"/>
<path d="M7858 214 c15 -7 17 -185 3 -199 -6 -6 17 -10 62 -10 74 0 87 6 86
40 0 19 -1 19 -16 -2 -11 -16 -26 -23 -49 -23 -34 0 -34 1 -34 45 0 41 2 45
24 45 13 0 27 -6 29 -12 3 -7 6 3 6 22 0 28 -2 32 -10 18 -5 -10 -19 -18 -30
-18 -18 0 -20 6 -17 43 3 40 4 42 32 39 17 -2 36 -11 43 -20 12 -15 13 -14 11
8 -3 24 -6 25 -78 27 -41 1 -69 0 -62 -3z"/>
<path d="M8028 208 c15 -15 16 -180 1 -195 -7 -7 -1 -10 20 -9 21 1 27 4 20
13 -6 6 -9 41 -7 78 l3 67 55 -76 c30 -41 61 -76 68 -76 9 0 12 25 12 95 0 79
3 96 18 104 13 8 9 10 -23 10 -32 0 -36 -2 -22 -10 13 -8 17 -24 17 -74 0 -36
-4 -65 -9 -65 -5 0 -34 34 -65 75 -40 53 -63 75 -78 75 -17 0 -19 -3 -10 -12z"/>
<path d="M8246 204 c-9 -24 -8 -24 21 -9 15 8 30 12 35 9 11 -7 10 -178 -1
-189 -6 -6 7 -10 36 -11 31 -1 40 2 29 8 -13 7 -16 27 -16 97 0 81 2 89 20 94
11 3 27 -1 35 -10 13 -13 15 -12 15 6 0 20 -6 21 -84 21 -67 0 -85 -3 -90 -16z"/>
<path d="M8443 209 c14 -8 17 -25 17 -97 0 -49 -4 -92 -9 -97 -6 -6 15 -10 59
-10 76 0 75 0 84 35 l7 25 -17 -23 c-12 -16 -27 -22 -55 -22 l-39 0 0 45 c0
41 2 45 25 45 14 0 25 -4 25 -10 0 -5 4 -10 8 -10 5 0 9 14 9 31 0 28 -2 30
-13 14 -7 -9 -21 -15 -31 -13 -14 2 -18 12 -18 43 0 34 3 40 22 43 14 2 32 -6
48 -22 26 -26 28 -25 19 12 -6 20 -12 22 -83 22 -56 -1 -72 -3 -58 -11z"/>
</g>
</svg>
